#!OML:ASF H:\LiuWeirdWalks\Patient Classification 1\Patient 1\Session 1\male.ASF
:FULLY-SPECIFIED
:DEGREES
4878
root -0.0991556 17.5299 -15.7114 541.244 348.509 186.639
lowerback 5.26239 13.1304 7.22079
upperback -1.90321 17.975 -1.55002
thorax -2.2064 8.84289 -6.26658
lowerneck -20.9828 2.14589 8.40556
upperneck 23.4013 1.91556 -7.27374
head 11.2251 0.591542 -3.81198
rclavicle 9.22112e-014 2.18663e-014
rhumerus -7.63379 -25.1125 -54.9938
rradius 40.5869
rwrist -25.5155
rhand -17.6892 -5.03972
rfingers 7.12502
rthumb 8.57031 -34.8458
lclavicle 9.22112e-014 2.18663e-014
lhumerus -52.3032 26.6807 24.4509
lradius 40.0856
lwrist 10.7586
lhand -16.8592 -0.0442137
lfingers 7.12502
lthumb 9.37121 29.7275
rfemur 14.5194 -8.976 31.298
rtibia 26.224
rfoot -0.993481 -29.8362
rtoes -0.110935
lfemur -33.0956 -3.54209 -14.1081
ltibia 35.9082
lfoot -2.28667 4.15539
ltoes -12.019
4879
root -0.132169 17.5536 -15.8627 541.222 348.559 186.513
lowerback 5.2731 13.1688 7.09145
upperback -1.86367 18.0167 -1.54611
thorax -2.2034 8.86731 -6.20082
lowerneck -20.9785 2.10113 8.30952
upperneck 23.465 1.86665 -7.20972
head 11.2419 0.568109 -3.78146
rclavicle -1.9307e-014 2.26615e-014
rhumerus -7.71334 -25.1384 -55.0162
rradius 40.5711
rwrist -25.3984
rhand -17.6222 -4.98966
rfingers 7.12502
rthumb 8.63495 -34.7931
lclavicle -1.9307e-014 2.26615e-014
lhumerus -52.5113 26.6216 24.637
lradius 40.1319
lwrist 11.0631
lhand -16.8146 0.023024
lfingers 7.12502
lthumb 9.4142 29.7928
rfemur 14.1571 -9.63718 30.8241
rtibia 27.4993
rfoot 0.106031 -29.633
rtoes 0.509482
lfemur -32.5327 -3.32179 -14.3819
ltibia 36.0819
lfoot -2.50247 4.26842
ltoes -11.1276
4880
root -0.16695 17.5794 -16.0153 541.204 348.652 186.364
lowerback 5.2416 13.2092 6.9468
upperback -1.82833 18.057 -1.54551
thorax -2.18572 8.89199 -6.12113
lowerneck -21.0335 2.06304 8.21257
upperneck 23.6379 1.8082 -7.09182
head 11.3101 0.545953 -3.73623
rclavicle 1.30154e-013 -1.19271e-014
rhumerus -7.85062 -25.1497 -55.0927
rradius 40.5727
rwrist -25.2366
rhand -17.5692 -4.98486
rfingers 7.12502
rthumb 8.68608 -34.7862
lclavicle 1.30154e-013 -1.19271e-014
lhumerus -52.7015 26.4986 24.9183
lradius 40.1979
lwrist 11.4068
lhand -16.757 0.0897851
lfingers 7.12502
lthumb 9.46984 29.857
rfemur 13.8053 -10.2841 30.2839
rtibia 28.7492
rfoot 1.2889 -29.4472
rtoes 1.16516
lfemur -31.9057 -3.12178 -14.6691
ltibia 36.1651
lfoot -2.74086 4.43481
ltoes -10.3288
4881
root -0.203966 17.6076 -16.1684 541.223 348.755 186.16
lowerback 5.14212 13.2353 6.7556
upperback -1.79572 18.0704 -1.55603
thorax -2.14807 8.90507 -6.01472
lowerneck -21.0533 1.99869 8.02972
upperneck 23.8436 1.71552 -6.87609
head 11.3795 0.512736 -3.64582
rclavicle 1.02548e-013 2.42517e-014
rhumerus -7.99645 -25.0989 -55.2319
rradius 40.5644
rwrist -25.1189
rhand -17.5597 -4.97575
rfingers 7.12502
rthumb 8.69528 -34.7767
lclavicle 1.02548e-013 2.42517e-014
lhumerus -52.9031 26.349 25.2583
lradius 40.2605
lwrist 11.6394
lhand -16.6397 0.104548
lfingers 7.12502
lthumb 9.58298 29.8666
rfemur 13.4307 -10.9479 29.6385
rtibia 29.9861
rfoot 2.56114 -29.2563
rtoes 1.85581
lfemur -31.2489 -2.98063 -15.0088
ltibia 36.1635
lfoot -2.97598 4.67375
ltoes -9.61292
4882
root -0.241998 17.6371 -16.3214 541.261 348.868 185.922
lowerback 5.00371 13.2483 6.53136
upperback -1.76915 18.062 -1.57288
thorax -2.10647 8.9078 -5.89108
lowerneck -21.0593 1.95223 7.91418
upperneck 24.0046 1.63608 -6.6972
head 11.4321 0.487534 -3.57692
rclavicle 8.90307e-014 -2.70347e-014
rhumerus -8.18307 -24.9755 -55.4244
rradius 40.5796
rwrist -25.0519
rhand -17.5944 -4.97546
rfingers 7.12502
rthumb 8.66173 -34.7778
lclavicle 8.90307e-014 -2.70347e-014
lhumerus -53.1051 26.1667 25.6758
lradius 40.3284
lwrist 11.8129
lhand -16.5095 0.105522
lfingers 7.12502
lthumb 9.70865 29.8618
rfemur 13.032 -11.6059 28.9274
rtibia 31.2306
rfoot 3.90549 -29.058
rtoes 2.42817
lfemur -30.5601 -2.88859 -15.3767
ltibia 36.0876
lfoot -3.19551 4.97224
ltoes -8.97153
4883
root -0.280716 17.6672 -16.4737 541.306 348.991 185.672
lowerback 4.8447 13.2411 6.29695
upperback -1.75285 18.0259 -1.59052
thorax -2.07093 8.8961 -5.76073
lowerneck -21.0542 1.92698 7.87477
upperneck 24.1283 1.57545 -6.56934
head 11.4716 0.471729 -3.53582
rclavicle 3.31473e-014 -2.26615e-014
rhumerus -8.4022 -24.7677 -55.681
rradius 40.6164
rwrist -24.9888
rhand -17.6562 -5.03675
rfingers 7.12502
rthumb 8.60208 -34.8415
lclavicle 3.31473e-014 -2.26615e-014
lhumerus -53.3191 25.9291 26.1599
lradius 40.4047
lwrist 11.9561
lhand -16.378 0.0884623
lfingers 7.12502
lthumb 9.83545 29.8387
rfemur 12.6102 -12.2557 28.18
rtibia 32.5016
rfoot 5.28002 -28.833
rtoes 2.93567
lfemur -29.8436 -2.83745 -15.7485
ltibia 35.9502
lfoot -3.40619 5.30817
ltoes -8.45579
4884
root -0.318541 17.6972 -16.6247 541.341 349.156 185.447
lowerback 4.69607 13.2308 6.07074
upperback -1.74494 17.9882 -1.59319
thorax -2.05231 8.88213 -5.62405
lowerneck -21.0565 1.89686 7.83499
upperneck 24.2216 1.50847 -6.4438
head 11.5006 0.453016 -3.4955
rclavicle -2.95444e-014 1.27222e-014
rhumerus -8.66527 -24.5102 -55.9756
rradius 40.6878
rwrist -24.8986
rhand -17.7093 -5.20994
rfingers 7.12502
rthumb 8.55087 -35.0168
lclavicle -2.95444e-014 1.27222e-014
lhumerus -53.5223 25.6389 26.7536
lradius 40.493
lwrist 12.1232
lhand -16.2908 0.0573344
lfingers 7.12502
lthumb 9.91957 29.8036
rfemur 12.1604 -12.8424 27.4598
rtibia 33.8094
rfoot 6.6458 -28.6154
rtoes 3.35529
lfemur -29.1003 -2.79828 -16.0787
ltibia 35.7658
lfoot -3.61222 5.68118
ltoes -8.10469
4885
root -0.356616 17.7266 -16.7735 541.373 349.346 185.24
lowerback 4.54314 13.2001 5.85675
upperback -1.7393 17.9249 -1.58192
thorax -2.03765 8.85468 -5.47938
lowerneck -21.0617 1.88582 7.83275
upperneck 24.3385 1.45902 -6.33495
head 11.5414 0.443278 -3.46593
rclavicle 2.01419e-013 -1.78906e-014
rhumerus -8.93486 -24.1947 -56.3341
rradius 40.7908
rwrist -24.7616
rhand -17.729 -5.39823
rfingers 7.12502
rthumb 8.53183 -35.2059
lclavicle 2.01419e-013 -1.78906e-014
lhumerus -53.751 25.3282 27.4163
lradius 40.593
lwrist 12.2734
lhand -16.2197 0.00762562
lfingers 7.12502
lthumb 9.98816 29.7506
rfemur 11.6794 -13.3901 26.7535
rtibia 35.1532
rfoot 7.93054 -28.3966
rtoes 3.72258
lfemur -28.3458 -2.77817 -16.3829
ltibia 35.5478
lfoot -3.81244 6.08852
ltoes -7.89221
4886
root -0.393727 17.7556 -16.9199 541.387 349.572 185.082
lowerback 4.41491 13.1592 5.68369
upperback -1.7426 17.8531 -1.55261
thorax -2.04024 8.82118 -5.34381
lowerneck -21.1153 1.87487 7.82513
upperneck 24.4977 1.40369 -6.21267
head 11.6074 0.431693 -3.43303
rclavicle -2.60408e-014 -1.74931e-014
rhumerus -9.22673 -23.869 -56.7448
rradius 40.9222
rwrist -24.538
rhand -17.6818 -5.62891
rfingers 7.12502
rthumb 8.5774 -35.4347
lclavicle -2.60408e-014 -1.74931e-014
lhumerus -53.9663 24.9762 28.1705
lradius 40.6928
lwrist 12.4419
lhand -16.1979 -0.0381985
lfingers 7.12502
lthumb 10.0092 29.7038
rfemur 11.1632 -13.8705 26.1153
rtibia 36.5241
rfoot 9.10501 -28.238
rtoes 4.01733
lfemur -27.5767 -2.76039 -16.6245
ltibia 35.3035
lfoot -4.01263 6.53437
ltoes -7.82239
4887
root -0.430314 17.7844 -17.0631 541.399 349.818 184.967
lowerback 4.30385 13.1022 5.5519
upperback -1.7567 17.7642 -1.51063
thorax -2.05711 8.77746 -5.22102
lowerneck -21.1595 1.86762 7.84021
upperneck 24.6587 1.34664 -6.09533
head 11.6727 0.420876 -3.40611
rclavicle -8.7838e-014 1.59028e-015
rhumerus -9.52087 -23.5079 -57.2026
rradius 41.0691
rwrist -24.2906
rhand -17.563 -5.81007
rfingers 7.12502
rthumb 8.69209 -35.6111
lclavicle -8.7838e-014 1.59028e-015
lhumerus -54.1727 24.6241 28.9879
lradius 40.7781
lwrist 12.558
lhand -16.1844 -0.0980846
lfingers 7.12502
lthumb 10.0223 29.6433
rfemur 10.5971 -14.3057 25.5404
rtibia 37.9106
rfoot 10.1519 -28.1831
rtoes 4.36792
lfemur -26.8153 -2.76119 -16.8137
ltibia 35.04
lfoot -4.20577 7.01197
ltoes -7.8175
4888
root -0.466657 17.8128 -17.2044 541.405 350.067 184.88
lowerback 4.20018 13.0251 5.45109
upperback -1.77687 17.6514 -1.46057
thorax -2.08023 8.72087 -5.10752
lowerneck -21.2204 1.86528 7.87154
upperneck 24.8375 1.28812 -5.97632
head 11.7485 0.411099 -3.38224
rclavicle 3.03644e-014 1.07344e-014
rhumerus -9.824 -23.1086 -57.7063
rradius 41.228
rwrist -24.0221
rhand -17.3935 -5.92686
rfingers 7.12502
rthumb 8.8556 -35.721
lclavicle 3.03644e-014 1.07344e-014
lhumerus -54.3501 24.236 29.8898
lradius 40.8492
lwrist 12.6796
lhand -16.1983 -0.1465
lfingers 7.12502
lthumb 10.0089 29.5955
rfemur 9.99893 -14.7203 25.0052
rtibia 39.2921
rfoot 11.0195 -28.3523
rtoes 4.61992
lfemur -26.0539 -2.7777 -16.975
ltibia 34.7626
lfoot -4.39522 7.50923
ltoes -7.82824
4889
root -0.503238 17.8402 -17.3436 541.424 350.306 184.791
lowerback 4.09855 12.9273 5.35603
upperback -1.81422 17.5118 -1.41603
thorax -2.12153 8.64972 -5.00539
lowerneck -21.2358 1.83895 7.87549
upperneck 24.9915 1.19802 -5.82679
head 11.8031 0.388684 -3.34604
rclavicle -2.25223e-013 -2.5842e-014
rhumerus -10.1595 -22.6651 -58.25
rradius 41.4045
rwrist -23.7635
rhand -17.2044 -5.98374
rfingers 7.12502
rthumb 9.03807 -35.7701
lclavicle -2.25223e-013 -2.5842e-014
lhumerus -54.506 23.8336 30.8341
lradius 40.8915
lwrist 12.7064
lhand -16.1791 -0.207947
lfingers 7.12502
lthumb 10.0274 29.5332
rfemur 9.35622 -15.1437 24.4738
rtibia 40.662
rfoot 11.6669 -28.8082
rtoes 4.84628
lfemur -25.3111 -2.82309 -17.144
ltibia 34.4793
lfoot -4.575 8.02887
ltoes -7.8034
4890
root -0.539124 17.8668 -17.4814 541.421 350.537 184.736
lowerback 4.02359 12.8164 5.2993
upperback -1.85269 17.3587 -1.35784
thorax -2.17268 8.57069 -4.91436
lowerneck -21.2526 1.78379 7.82305
upperneck 25.1377 1.07477 -5.63952
head 11.852 0.350954 -3.29098
rclavicle -1.31409e-013 3.57812e-015
rhumerus -10.5577 -22.1629 -58.8056
rradius 41.6396
rwrist -23.6059
rhand -17.0326 -5.93919
rfingers 7.12502
rthumb 9.20392 -35.7183
lclavicle -1.31409e-013 3.57812e-015
lhumerus -54.6055 23.4234 31.864
lradius 40.8989
lwrist 12.6692
lhand -16.1476 -0.273248
lfingers 7.12502
lthumb 10.0578 29.4664
rfemur 8.70368 -15.5692 23.9901
rtibia 42.0081
rfoot 11.9704 -29.5805
rtoes 5.14896
lfemur -24.5549 -2.87453 -17.2824
ltibia 34.1919
lfoot -4.75101 8.55816
ltoes -7.76207
